<svg viewBox="0 0 64 64" xmlns="http://www.w3.org/2000/svg"><path d="m2 28.3v31.4c0 2.4 1.9 4.3 4.3 4.3h51.4c2.4 0 4.3-1.9 4.3-4.3v-31.4z" fill="#ffce31"/><path d="m62 24c0-2.4-1.9-4.3-4.3-4.3h-51.4c-2.4-.1-4.3 1.9-4.3 4.3v4.3h60z" fill="#ff8736"/><g fill="#3e4347"><ellipse cx="12.4" cy="23.5" rx="5.9" ry="2.5"/><ellipse cx="51.6" cy="23.5" rx="5.9" ry="2.5"/></g><path d="m32 0c-12.9 0-23.4 10.6-23.4 23.5 0 .8 1.6 1.4 3.8 1.4v-1.4c.8-11 9.3-19.7 19.6-19.7 10.4 0 18.9 8.7 19.6 19.7v1.4c2.2 0 3.8-.6 3.8-1.4 0-12.9-10.5-23.5-23.4-23.5" fill="#dfe9ef"/><path d="m51.6 23.5c-.7-10.9-9.2-19.6-19.6-19.6s-18.9 8.7-19.6 19.7v1.4c2.2 0 4.2-.6 4.2-1.4-.1-7.2 5.9-15.6 15.4-15.6s15.5 8.4 15.5 15.5c0 .8 2 1.4 4.2 1.4z" fill="#b0bdc6"/><path d="m43.2 27.3v8.2l2.3 2.2v3.8l-2.3 2.2v5l2.3 2.2v3.8l-2.3 2.2v3.4l4.7 3.8 4.7-3.8v-33c5.5-1.9 9.4-7.1 9.4-13.3 0-7.7-6.3-14-14.1-14s-14 6.3-14 14.1c0 6.1 3.9 11.3 9.3 13.2m9.4-17.9c0 2.6-2.1 4.6-4.6 4.6-2.6 0-4.6-2.1-4.6-4.6 0-2.6 2.1-4.6 4.6-4.6s4.6 2.1 4.6 4.6" fill="#42ade2"/></svg>