<svg fill="none" height="48" viewBox="0 0 48 48" width="48" xmlns="http://www.w3.org/2000/svg"><path d="m4.65388 8.57316c.19108-1.64741 1.19053-3.00743 2.80986-3.36554 2.52586-.5586 7.42176-1.20762 16.53626-1.20762s14.0104.64902 16.5363 1.20762c1.6193.35811 2.6187 1.71813 2.8098 3.36554.289 2.49124.6539 6.59414.6539 11.42684 0 9.0284-4.7649 17.4764-12.7926 21.6079-2.6816 1.3801-5.2987 2.3921-7.2074 2.3921s-4.5258-1.012-7.2074-2.3921c-8.02767-4.1315-12.7926-12.5795-12.7926-21.6079 0-4.8327.36493-8.9356.65388-11.42684z" fill="#a6cfff"/><path d="m11.3409 13.8874c.1606-1.6265 1.1457-2.9536 2.7541-3.2438 1.8109-.3267 4.8662-.6436 9.905-.6436s8.0941.3169 9.905.6436c1.6084.2902 2.5935 1.6173 2.7541 3.2438.1676 1.6967.3409 4.1247.3409 6.9126 0 5.3141-2.5797 10.2107-6.9023 13.3019-2.2037 1.576-4.522 2.8981-6.0977 2.8981s-3.894-1.3221-6.0977-2.8981c-4.3226-3.0912-6.9023-7.9878-6.9023-13.3019 0-2.7879.1733-5.2159.3409-6.9126z" fill="#1575e5"/></svg>